<svg width="155" height="155" viewBox="0 0 155 155" fill="none" xmlns="http://www.w3.org/2000/svg">
<rect width="155" height="155" rx="50" fill="#1C1C1C"/>
<path d="M55.8636 28.8182H99.1364V34.2273H109.955V39.6364H115.364V45.0454H120.773V109.955H115.364V115.364H109.955V120.773H99.1364V126.182H55.8636V120.773H45.0454V115.364H39.6364V109.955H34.2273V45.0454H39.6364V39.6364H45.0454V34.2273H55.8636V28.8182ZM61.2727 104.545V99.1364H50.4545V93.7273H45.0454V104.545H50.4545V109.955H61.2727V115.364H93.7273V109.955H104.545V104.545H109.955V93.7273H104.545V99.1364H93.7273V104.545H61.2727ZM61.2727 77.5V72.0909H50.4545V66.6818H45.0454V82.9091H55.8636V88.3182H66.6818V93.7273H88.3182V88.3182H99.1364V82.9091H109.955V66.6818H104.545V72.0909H93.7273V77.5H61.2727ZM66.6818 61.2727V66.6818H88.3182V61.2727H99.1364V55.8636H109.955V50.4545H104.545V45.0454H93.7273V39.6364H61.2727V45.0454H50.4545V50.4545H45.0454V55.8636H55.8636V61.2727H66.6818Z" fill="white"/>
</svg>
